<svg xmlns="http://www.w3.org/2000/svg" xmlns:xlink="http://www.w3.org/1999/xlink" version="1.1" id="Layer_1" x="0px" y="0px" viewBox="0 0 50 50" style="enable-background:new 0 0 50 50;" xml:space="preserve" width="50"  height="50" >
<style type="text/css">
	.st0{fill:url(#SVGID_1_);}
</style>
<g>
	<linearGradient id="SVGID_1_" gradientUnits="userSpaceOnUse" x1="25.0975" y1="1.2865" x2="25.0975" y2="49.1084">
		<stop offset="0" style="stop-color:#6DC3D1"/>
		<stop offset="1" style="stop-color:#15547C"/>
	</linearGradient>
	<path className="st0" d="M26.68,49.11c-1.06,0-2.12,0-3.18,0c-0.58-0.07-1.17-0.13-1.75-0.22c-4.62-0.68-8.76-2.47-12.25-5.58   C3.06,37.6,0.37,30.4,1.41,21.87c0.56-4.62,2.43-8.74,5.52-12.22c6.07-6.82,13.69-9.49,22.66-7.92c5.95,1.04,10.76,4.15,14.47,8.92   c2.39,3.07,3.92,6.54,4.57,10.39c0.14,0.86,0.25,1.72,0.37,2.58c0,1.06,0,2.12,0,3.18c-0.03,0.15-0.07,0.3-0.09,0.45   c-0.11,0.83-0.17,1.67-0.33,2.49c-1,5.1-3.4,9.44-7.2,12.98c-3.44,3.21-7.48,5.24-12.12,6.04C28.4,48.89,27.53,48.99,26.68,49.11z    M41.04,38.9c6.41-7.04,7.69-19.94-1.1-28.67c-8.83-8.77-23.11-8.09-31.04,1.46c-7.71,9.28-5.32,21.3,0.25,27.19   c1.55-5.46,4.99-9.22,10.25-11.36c-5.45-3.96-5.54-11.05-1.71-15.15c3.91-4.2,10.46-4.32,14.52-0.29   c3.99,3.96,4.25,11.35-1.42,15.44C36.06,29.65,39.47,33.45,41.04,38.9z M25.63,46.3c0.64-0.07,1.84-0.12,3.02-0.32   c3.61-0.61,6.84-2.09,9.69-4.4c0.13-0.11,0.23-0.36,0.21-0.53c-0.33-2.56-1.35-4.84-3.01-6.81c-2.41-2.85-5.49-4.49-9.21-4.83   c-3.37-0.3-6.49,0.54-9.22,2.56c-3.07,2.27-4.92,5.3-5.47,9.09c-0.02,0.16,0.07,0.4,0.19,0.5C15.69,44.68,20.12,46.24,25.63,46.3z    M32.34,19.19c0.01-3.97-3.26-7.25-7.24-7.27c-3.96-0.02-7.22,3.23-7.27,7.24c-0.05,3.98,3.25,7.27,7.26,7.26   C29.1,26.42,32.33,23.19,32.34,19.19z"/>
</g>
<g>
</g>
<g>
</g>
<g>
</g>
<g>
</g>
<g>
</g>
<g>
</g>
</svg>